<?xml version="1.0" encoding="UTF-8" standalone="no"?>
<svg
   xmlns:dc="http://purl.org/dc/elements/1.1/"
   xmlns:cc="http://creativecommons.org/ns#"
   xmlns:rdf="http://www.w3.org/1999/02/22-rdf-syntax-ns#"
   xmlns:svg="http://www.w3.org/2000/svg"
   xmlns="http://www.w3.org/2000/svg"
   xmlns:sodipodi="http://sodipodi.sourceforge.net/DTD/sodipodi-0.dtd"
   xmlns:inkscape="http://www.inkscape.org/namespaces/inkscape"
   viewBox="0 0 532 130"
   version="1.1"
   id="svg42"
   sodipodi:docname="DiscordWordMark.Light.svg"
   inkscape:version="1.0 (4035a4fb49, 2020-05-01)">
  <metadata
     id="metadata48">
    <rdf:RDF>
      <cc:Work
         rdf:about="">
        <dc:format>image/svg+xml</dc:format>
        <dc:type
           rdf:resource="http://purl.org/dc/dcmitype/StillImage" />
      </cc:Work>
    </rdf:RDF>
  </metadata>
  <defs
     id="defs46" />
  <sodipodi:namedview
     inkscape:document-rotation="0"
     pagecolor="#ffffff"
     bordercolor="#666666"
     borderopacity="1"
     objecttolerance="10"
     gridtolerance="10"
     guidetolerance="10"
     inkscape:pageopacity="0"
     inkscape:pageshadow="2"
     inkscape:window-width="1920"
     inkscape:window-height="1017"
     id="namedview44"
     showgrid="false"
     inkscape:zoom="1.9718045"
     inkscape:cx="219.68808"
     inkscape:cy="79.036356"
     inkscape:window-x="-8"
     inkscape:window-y="-8"
     inkscape:window-maximized="1"
     inkscape:current-layer="svg42" />
  <g
     id="text56">
    <path
       fill="black"
       d="m 421.60728,109.15741 h 28.06499 L 425.38284,78.575367 C 436.20611,75.177363 442.87627,65.864315 442.87627,49.377703 442.37286,28.486272 428.15158,20.054188 409.77719,20.054188 h -35.61611 v 89.103222 h 22.77921 V 80.840703 h 4.02726 z M 396.94029,61.459495 V 41.071471 h 13.21446 c 14.22127,0 14.22127,20.388024 0,20.388024 z M 288.44798,79.833887 c 0,20.388033 18.50025,30.582043 37.00049,30.582043 18.50024,0 36.87464,-10.19401 36.87464,-30.582043 V 49.377703 c 0,-20.388023 -18.50025,-30.582035 -37.00049,-30.582035 -18.50024,0 -36.87464,10.06816 -36.87464,30.582035 z m 22.52751,-30.456184 c 0,-6.544304 7.04771,-10.068159 14.09543,-10.068159 7.29941,0 14.72468,3.146299 14.72468,10.068159 v 30.456184 c 0,6.418452 -7.17357,9.690603 -14.34713,9.690603 -7.17356,0 -14.47298,-3.146299 -14.47298,-9.690603 z m -48.20524,31.966408 c -4.90823,12.333495 -25.04454,9.313047 -25.04454,-1.384372 V 49.251851 c 0,-11.074975 19.88461,-13.592015 25.92551,-2.51704 l 18.37439,-7.425267 c -7.17357,-15.857352 -20.38803,-20.513876 -31.33715,-20.513876 -17.87098,0 -35.49026,10.319864 -35.49026,30.456183 v 30.707888 c 0,20.262181 17.61928,30.456191 35.1127,30.456191 11.20083,0 24.667,-5.53749 32.09226,-20.010476 z M 203.24028,20.054188 h -22.52751 v 89.103222 h 22.52751 z M 95.664358,109.15741 H 118.19186 V 73.541287 l -2.89459,-17.241724 0.62926,-0.125852 7.80282,17.870984 20.13632,35.112715 h 22.77921 V 20.054188 h -22.40165 v 40.398491 c 0.12585,0 2.39119,15.353944 2.51704,15.353944 L 146.13101,75.932475 138.57989,58.061491 117.0592,20.054188 H 95.664358 Z M 33.874961,20.054188 H 11.095749 v 59.276291 c -0.125852,41.782871 70.980527,41.782871 71.106379,0 V 20.054188 H 59.422916 v 59.276291 c -0.125852,14.347127 -25.547955,14.347127 -25.547955,0 z m 454.691859,0.03612 h -33.33764 v 37.444769 l 22.19162,19.91743 v -36.34931 h 11.84892 c 7.53109,0 11.24643,3.684724 11.24643,9.460779 v 27.784815 c 0,5.776055 -3.51451,9.659954 -11.24643,9.659954 h -34.14095 v 21.112485 h 33.33763 c 17.87379,0.0996 34.64303,-8.76367 34.64303,-29.278631 V 49.866865 C 523.20984,29.152738 506.44061,20.090307 488.56682,20.090307 Z"
       id="path97" />
  </g>
</svg>
