<?xml version="1.0" encoding="utf-8"?>
<!-- Generator: Adobe Illustrator 22.1.0, SVG Export Plug-In . SVG Version: 6.00 Build 0)  -->
<svg version="1.1" id="Layer_1" xmlns="http://www.w3.org/2000/svg" xmlns:xlink="http://www.w3.org/1999/xlink" x="0px" y="0px"
	 viewBox="0 0 150 150" style="enable-background:new 0 0 150 150;" xml:space="preserve">
<style type="text/css">
	.st0{fill:#FFFFFF;}
</style>
<path class="st0" d="M130.8,35c-18.2-13.7-35.6-13.3-35.6-13.3l-1.8,2c21.5,6.6,31.6,16.1,31.6,16.1c-13.2-7.2-26.1-10.8-38.1-12.2
	c-9.1-1-17.9-0.8-25.6,0.3c-0.8,0-1.4,0.1-2.2,0.3c-4.4,0.4-15.2,2-28.8,8c-4.7,2.2-7.5,3.7-7.5,3.7s10.5-10,33.3-16.6l-1.3-1.5
	c0,0-17.4-0.4-35.6,13.3C19.2,35,1,68.2,1,109c0,0,10.6,18.4,38.6,19.3c0,0,4.7-5.7,8.5-10.5c-16.1-4.8-22.2-15-22.2-15
	s1.3,0.9,3.5,2.2c0.1,0.1,0.3,0.3,0.5,0.4c0.4,0.3,0.8,0.4,1.1,0.6c3.2,1.8,6.3,3.2,9.2,4.3c5.2,2,11.4,4.1,18.6,5.5
	c9.5,1.8,20.7,2.4,32.8,0.1c6-1,12-2.8,18.4-5.5c4.4-1.6,9.4-4.1,14.6-7.5c0,0-6.3,10.4-22.9,15.1c3.8,4.8,8.4,10.3,8.4,10.3
	c28-0.9,38.8-19.3,38.8-19.3C149,68.2,130.8,35,130.8,35z M51.3,97.2c-7.1,0-12.9-6.3-12.9-14.1S44.1,69,51.3,69
	c7.2,0,13.1,6.3,12.9,14.1C64.2,90.9,58.5,97.2,51.3,97.2z M97.6,97.2c-7.1,0-12.9-6.3-12.9-14.1S90.3,69,97.6,69
	c7.2,0,12.9,6.3,12.9,14.1S104.8,97.2,97.6,97.2z"/>
</svg>
