<?xml version="1.0" encoding="UTF-8" standalone="no"?>
<!-- Generator: Adobe Illustrator 22.1.0, SVG Export Plug-In . SVG Version: 6.00 Build 0)  -->

<svg
   version="1.1"
   id="Layer_1"
   x="0px"
   y="0px"
   viewBox="0 0 150 150"
   style="enable-background:new 0 0 150 150;"
   xml:space="preserve"
   sodipodi:docname="ClydeLogo.svg"
   inkscape:export-filename="C:\Users\wamwo\Pictures\Unicord\Background1.png"
   inkscape:export-xdpi="110.72"
   inkscape:export-ydpi="110.72"
   inkscape:version="1.1 (c68e22c387, 2021-05-23)"
   xmlns:inkscape="http://www.inkscape.org/namespaces/inkscape"
   xmlns:sodipodi="http://sodipodi.sourceforge.net/DTD/sodipodi-0.dtd"
   xmlns="http://www.w3.org/2000/svg"
   xmlns:svg="http://www.w3.org/2000/svg"><defs
   id="defs30" /><sodipodi:namedview
   id="namedview28"
   pagecolor="#505050"
   bordercolor="#eeeeee"
   borderopacity="1"
   inkscape:pageshadow="0"
   inkscape:pageopacity="0"
   inkscape:pagecheckerboard="0"
   showgrid="false"
   inkscape:zoom="5.5466667"
   inkscape:cx="74.909856"
   inkscape:cy="76.532452"
   inkscape:window-width="1600"
   inkscape:window-height="837"
   inkscape:window-x="1912"
   inkscape:window-y="-8"
   inkscape:window-maximized="1"
   inkscape:current-layer="Layer_1" />
<style
   type="text/css"
   id="style23">
	.st0{fill:#FFFFFF;}
</style>
<path
   class="st0"
   d="M 102.18847,55.527728 C 93.328453,48.858376 84.857885,49.053102 84.857885,49.053102 L 83.98162,50.02673 c 10.466505,3.212974 15.383323,7.837708 15.383323,7.837708 -6.425938,-3.505062 -12.705844,-5.257593 -18.547615,-5.939132 -4.430007,-0.486815 -8.713971,-0.389453 -12.46244,0.146044 -0.38945,0 -0.681539,0.04868 -1.070991,0.146043 -2.141982,0.194727 -7.399574,0.97363 -14.020245,3.894514 -2.288026,1.070991 -3.651105,1.801211 -3.651105,1.801211 0,0 5.111548,-4.86814 16.210908,-8.081113 l -0.632858,-0.730222 c 0,0 -8.470566,-0.194725 -17.33058,6.474628 C 47.860017,55.527731 39,71.689957 39,91.551977 c 0,0 5.16023,8.957373 18.791022,9.395503 0,0 2.288027,-2.774836 4.137921,-5.111543 -7.837708,-2.336706 -10.807273,-7.302214 -10.807273,-7.302214 0,0 0.632859,0.438131 1.703849,1.070993 0.04868,0.04863 0.146044,0.146042 0.243408,0.194722 0.194725,0.146047 0.38945,0.194726 0.535495,0.292089 1.557805,0.876274 3.06693,1.557808 4.478689,2.093298 2.531434,0.97363 5.549681,1.99594 9.054742,2.677483 4.624735,0.876267 10.077052,1.168353 15.967501,0.04869 2.920885,-0.486819 5.841766,-1.363077 8.957384,-2.677477 2.141982,-0.778903 4.57605,-1.995934 7.107481,-3.651102 0,0 -3.066922,5.062864 -11.148045,7.350889 1.849897,2.336716 4.089245,5.014182 4.089245,5.014182 13.630791,-0.43813 18.888381,-9.395508 18.888381,-9.395508 0.0487,-19.862017 -8.81133,-36.024245 -8.81133,-36.024245 z M 63.486749,85.807564 c -3.456381,0 -6.279902,-3.066929 -6.279902,-6.864077 0,-3.79715 2.77484,-6.86408 6.279902,-6.86408 3.50506,0 6.377263,3.06693 6.279901,6.86408 0,3.797148 -2.774841,6.864077 -6.279901,6.864077 z m 22.53949,0 c -3.456379,0 -6.279902,-3.066929 -6.279902,-6.864077 0,-3.79715 2.72616,-6.86408 6.279902,-6.86408 3.505063,0 6.279913,3.06693 6.279913,6.86408 0,3.797148 -2.77485,6.864077 -6.279913,6.864077 z"
   id="path25"
   style="stroke-width:0.486813" />
</svg>
