<?xml version="1.0" encoding="UTF-8" standalone="no"?>
<!-- Generator: Adobe Illustrator 22.1.0, SVG Export Plug-In . SVG Version: 6.00 Build 0)  -->

<svg
   xmlns:dc="http://purl.org/dc/elements/1.1/"
   xmlns:cc="http://creativecommons.org/ns#"
   xmlns:rdf="http://www.w3.org/1999/02/22-rdf-syntax-ns#"
   xmlns:svg="http://www.w3.org/2000/svg"
   xmlns="http://www.w3.org/2000/svg"
   xmlns:sodipodi="http://sodipodi.sourceforge.net/DTD/sodipodi-0.dtd"
   xmlns:inkscape="http://www.inkscape.org/namespaces/inkscape"
   version="1.1"
   id="Layer_1"
   x="0px"
   y="0px"
   viewBox="0 0 150 150"
   style="enable-background:new 0 0 150 150;background:#0078d7;"
   xml:space="preserve"
   sodipodi:docname="ClydeLogoBackground.svg"
   inkscape:version="0.92.4 (5da689c313, 2019-01-14)"><metadata
   id="metadata11"><rdf:RDF><cc:Work
       rdf:about=""><dc:format>image/svg+xml</dc:format><dc:type
         rdf:resource="http://purl.org/dc/dcmitype/StillImage" /><dc:title></dc:title></cc:Work></rdf:RDF></metadata><defs
   id="defs9" /><sodipodi:namedview
   pagecolor="#ffffff"
   bordercolor="#666666"
   borderopacity="1"
   objecttolerance="10"
   gridtolerance="10"
   guidetolerance="10"
   inkscape:pageopacity="0"
   inkscape:pageshadow="2"
   inkscape:window-width="1024"
   inkscape:window-height="705"
   id="namedview7"
   showgrid="false"
   inkscape:zoom="1.5733333"
   inkscape:cx="75"
   inkscape:cy="75"
   inkscape:window-x="1912"
   inkscape:window-y="-8"
   inkscape:window-maximized="1"
   inkscape:current-layer="Layer_1" />
<style
   type="text/css"
   id="style2">
	.st0{fill:#FFFFFF;}
</style>
<rect
   id="rect13"
   width="150"
   height="150"
   x="0"
   y="-1.1920929e-06"
   style="stroke-width:1.22856688;fill:#0078d7;fill-opacity:1" /><path
   class="st0"
   d="M 120.31412,42.546223 C 105.54742,31.430634 91.429811,31.755177 91.429811,31.755177 l -1.460443,1.622714 C 107.41354,38.732846 115.60824,46.440736 115.60824,46.440736 104.89833,40.598967 94.431835,37.678082 84.69555,36.542182 77.312202,35.730826 70.172263,35.893097 63.924815,36.78559 c -0.649085,0 -1.1359,0.08113 -1.784985,0.243407 -3.56997,0.324542 -12.332623,1.622714 -23.367076,6.490854 -3.813377,1.784985 -6.085176,3.00202 -6.085176,3.00202 0,0 8.519247,-8.113568 27.018182,-13.468523 l -1.054764,-1.217035 c 0,0 -14.117609,-0.324543 -28.884302,10.791046 0,-0.08114 -14.766695,26.855909 -14.766695,59.959271 0,0 8.600383,14.92896 31.318373,15.65918 0,0 3.813377,-4.62474 6.896533,-8.51925 -13.062844,-3.89451 -18.01212,-12.170349 -18.01212,-12.170349 0,0 1.054763,0.73022 2.839748,1.78498 0.08114,0.0811 0.243407,0.24341 0.405678,0.32455 0.324543,0.24341 0.649086,0.32454 0.892493,0.486809 2.596342,1.46044 5.111548,2.59635 7.464483,3.48884 4.219055,1.62271 9.249467,3.32656 15.091236,4.46246 7.70789,1.46044 16.795086,1.94726 26.612504,0.0811 4.86814,-0.81136 9.736282,-2.2718 14.928963,-4.46247 3.56997,-1.29817 7.62675,-3.32656 11.84581,-6.085169 0,0 -5.11155,8.438109 -18.580075,12.251479 3.08316,3.89452 6.815405,8.35698 6.815405,8.35698 22.71799,-0.73022 31.48064,-15.65918 31.48064,-15.65918 0.0811,-33.103362 -14.68555,-60.040407 -14.68555,-60.040407 z M 55.811247,93.012611 c -5.760633,0 -10.466503,-5.111543 -10.466503,-11.440126 0,-6.328583 4.624734,-11.440131 10.466503,-11.440131 5.841769,0 10.628774,5.111548 10.466503,11.440131 0,6.328583 -4.624734,11.440126 -10.466503,11.440126 z m 37.56582,0 c -5.760633,0 -10.466503,-5.111543 -10.466503,-11.440126 0,-6.328583 4.543599,-11.440131 10.466503,-11.440131 5.841766,0 10.466503,5.111548 10.466503,11.440131 0,6.328583 -4.624737,11.440126 -10.466503,11.440126 z"
   id="path4"
   inkscape:connector-curvature="0"
   style="fill:#ffffff;stroke-width:0.81135678" />
</svg>