<?xml version="1.0" encoding="UTF-8" standalone="no"?>
<!-- Generator: Adobe Illustrator 22.1.0, SVG Export Plug-In . SVG Version: 6.00 Build 0)  -->

<svg
   xmlns:dc="http://purl.org/dc/elements/1.1/"
   xmlns:cc="http://creativecommons.org/ns#"
   xmlns:rdf="http://www.w3.org/1999/02/22-rdf-syntax-ns#"
   xmlns:svg="http://www.w3.org/2000/svg"
   xmlns="http://www.w3.org/2000/svg"
   xmlns:sodipodi="http://sodipodi.sourceforge.net/DTD/sodipodi-0.dtd"
   xmlns:inkscape="http://www.inkscape.org/namespaces/inkscape"
   version="1.1"
   id="Layer_1"
   x="0px"
   y="0px"
   viewBox="0 0 150 150"
   style="enable-background:new 0 0 150 150;background:#0078d7;"
   xml:space="preserve"
   sodipodi:docname="ClydeLogoBackground.svg"
   inkscape:export-filename="C:\Users\wamwo\Documents\GitHub\Unicord\Assets\ClydeLogoBackground.png"
   inkscape:export-xdpi="163.84"
   inkscape:export-ydpi="163.84"
   inkscape:version="0.92.4 (5da689c313, 2019-01-14)"><metadata
   id="metadata11"><rdf:RDF><cc:Work
       rdf:about=""><dc:format>image/svg+xml</dc:format><dc:type
         rdf:resource="http://purl.org/dc/dcmitype/StillImage" /><dc:title></dc:title></cc:Work></rdf:RDF></metadata><defs
   id="defs9" /><sodipodi:namedview
   pagecolor="#ffffff"
   bordercolor="#666666"
   borderopacity="1"
   objecttolerance="10"
   gridtolerance="10"
   guidetolerance="10"
   inkscape:pageopacity="0"
   inkscape:pageshadow="2"
   inkscape:window-width="1024"
   inkscape:window-height="705"
   id="namedview7"
   showgrid="false"
   inkscape:zoom="1.5733333"
   inkscape:cx="-28.283898"
   inkscape:cy="75"
   inkscape:window-x="1912"
   inkscape:window-y="-8"
   inkscape:window-maximized="1"
   inkscape:current-layer="Layer_1" />
<style
   type="text/css"
   id="style2">
	.st0{fill:#FFFFFF;}
</style>
<rect
   id="rect13"
   width="150"
   height="150"
   x="0"
   y="-1.1920929e-06"
   style="stroke-width:1.22856688;fill:#0078d7;fill-opacity:1"
   inkscape:export-xdpi="163.84"
   inkscape:export-ydpi="163.84" /><path
   class="st0"
   d="M 105.20941,53.364146 C 95.364944,45.953753 85.953207,46.170115 85.953207,46.170115 l -0.973629,1.081809 c 11.629446,3.569971 17.092582,8.708564 17.092582,8.708564 -7.139941,-3.894513 -14.117603,-5.841769 -20.60846,-6.599036 -4.922232,-0.540904 -9.682192,-0.432724 -13.847157,0.162272 -0.432723,0 -0.757267,0.05409 -1.18999,0.162271 -2.37998,0.216361 -8.221748,1.081809 -15.57805,4.327236 -2.542252,1.18999 -4.056784,2.001347 -4.056784,2.001347 0,0 5.679497,-5.409046 18.012121,-8.979016 l -0.703176,-0.811356 c 0,0 -9.41174,-0.216362 -19.256201,7.19403 0,-0.0541 -9.844464,17.90394 -9.844464,39.972848 0,0 5.733589,9.952626 20.878915,10.439446 0,0 2.542251,-3.08316 4.597689,-5.679496 -8.708563,-2.59634 -12.00808,-8.113561 -12.00808,-8.113561 0,0 0.703176,0.486808 1.893165,1.189984 0.0541,0.05408 0.162272,0.162272 0.270452,0.216368 0.216363,0.162272 0.432724,0.21636 0.594996,0.324536 1.730894,0.973632 3.407698,1.730903 4.976321,2.325893 2.812704,1.08181 6.166312,2.2177 10.060825,2.97498 5.138593,0.97362 11.196724,1.29816 17.741669,0.0541 3.245427,-0.54091 6.490855,-1.51454 9.952642,-2.97498 2.379983,-0.86545 5.084503,-2.217709 7.897207,-4.056781 0,0 -3.407704,5.625401 -12.386717,8.167651 2.05544,2.596346 4.543604,5.571316 4.543604,5.571316 15.145323,-0.48681 20.987093,-10.439446 20.987093,-10.439446 0.0541,-22.068909 -9.79037,-40.026939 -9.79037,-40.026939 z M 62.207498,87.008405 c -3.840422,0 -6.977669,-3.407696 -6.977669,-7.626751 0,-4.219055 3.083156,-7.626754 6.977669,-7.626754 3.894512,0 7.085849,3.407699 6.977669,7.626754 0,4.219055 -3.083157,7.626751 -6.977669,7.626751 z m 25.04388,0 c -3.840422,0 -6.977669,-3.407696 -6.977669,-7.626751 0,-4.219055 3.029066,-7.626754 6.977669,-7.626754 3.89451,0 6.977669,3.407699 6.977669,7.626754 0,4.219055 -3.083159,7.626751 -6.977669,7.626751 z"
   id="path4"
   inkscape:connector-curvature="0"
   style="fill:#ffffff;stroke-width:0.54090452"
   inkscape:export-xdpi="163.84"
   inkscape:export-ydpi="163.84" />
</svg>